<svg xmlns="http://www.w3.org/2000/svg" viewBox="50 -50 47.68 33">
	<path d="m 53.8514 -20.9596 V -41.2688 H 62.567 C 66.9137 -41.1205 68.7581 -39.6016 68.8505 -35.9141 C 68.8505 -33.2933 68.1926 -31.6085 66.0821 -30.2628 C 67.8784 -29.6271 68.869 -28.8006 68.8505 -26.7626 V -20.9383 H 63.6019 V -25.597 C 63.6278 -27.3242 63.0511 -28.006 61.2549 -28.0236 H 58.8709 V -20.9596 H 53.8514 Z M 63.3617 -30.8951 V -34.6391 H 65.1802 L 60.9739 -38.6975 L 56.9081 -34.7415 H 58.6417 V -30.9023 H 63.3802 L 63.3617 -30.8951 Z M 53.8366 -44.4193 H 72.3175 V -20.9418 H 69.9594 L 74.2506 -17 L 78.3164 -20.9418 H 75.9657 V -44.4193 H 93.8293 V -42.1411 L 97.6808 -46.1147 L 93.8293 -50 V -47.9479 H 53.8366 V -50 L 50 -46.1147 L 53.8366 -42.1411 V -44.4193 Z M 79.429 -41.2688 H 93.8441 V -37.2847 H 86.0304 V -39.3332 L 82.1937 -35.448 L 86.0304 -31.4779 V -33.7526 H 93.8699 V -28.6876 H 86.0304 V -30.7291 L 82.1937 -26.8438 L 86.0304 -22.8702 V -25.1485 H 93.8699 V -20.9596 H 79.4548 L 79.429 -41.2688 z" fill="#000"/>
</svg>