<?xml version="1.0" encoding="utf-8"?>
<!-- Generator: Adobe Illustrator 28.0.0, SVG Export Plug-In . SVG Version: 6.00 Build 0)  -->
<svg version="1.1" id="Layer_1" xmlns="http://www.w3.org/2000/svg" xmlns:xlink="http://www.w3.org/1999/xlink" x="0px" y="0px"
	 viewBox="0 0 593.91 213.64" style="enable-background:new 0 0 593.91 213.64;" xml:space="preserve">
<g>
	<path d="M117.84,213.64c-7.32,0-14.65,0-21.97,0c-1.05-0.4-2.08-1.02-3.17-1.16c-43.94-5.98-79.95-38.93-89.46-81.98
		c-1.27-5.76-2.17-11.6-3.24-17.4c0-3.98,0-7.96,0-11.95c0.73-4.21,1.5-8.42,2.17-12.64c8.91-55.68,63.07-95.74,119-87.41
		c34.06,5.07,60.1,22.72,77.83,52.32c0.8,1.33,1.72,2.59,2.88,4.31c21.4-37.09,52.87-57.46,95.06-57.45
		c42.29,0.01,73.76,20.66,94.99,57.58c1.32-2.14,2.21-3.52,3.04-4.93c21.8-37.04,64-57.89,106.5-51.87
		c59.71,8.46,98.6,63.25,91.64,118.73c-5.36,42.7-35.32,77.94-77.01,89.68c-5.86,1.65-11.85,2.79-17.79,4.16
		c-6.99,0-13.98,0-20.97,0c-1.25-0.39-2.47-0.95-3.75-1.14c-34.05-4.9-59.88-22.16-77.87-51.28c-1-1.62-1.98-3.25-2.96-4.86
		c-0.83,0.46-1.2,0.54-1.36,0.77c-0.65,0.96-1.24,1.95-1.84,2.95c-15.76,26.09-38.21,43.22-68,50.52
		c-4.63,1.13-9.31,2.03-13.97,3.04c-6.99,0-13.98,0-20.97,0c-1.06-0.39-2.1-0.98-3.19-1.14c-34.44-5.01-60.45-22.58-78.4-52.19
		c-0.81-1.34-1.71-2.63-2.58-3.96c-0.7,0.48-1.04,0.61-1.22,0.86c-0.57,0.81-1.1,1.65-1.6,2.51c-15.79,26.58-38.65,43.71-68.78,51.1
		C126.52,211.87,122.17,212.7,117.84,213.64z M487.12,190.2c46.02-0.05,83.33-37.35,83.34-83.31c0.01-46.08-37.62-83.7-83.69-83.66
		c-45.7,0.04-83.36,37.73-83.46,83.5C403.22,152.72,440.9,190.25,487.12,190.2z M107.02,190.2c46.06,0.04,83.84-37.72,83.64-83.62
		c-0.19-45.61-37.71-83.26-83.06-83.34c-46.26-0.08-83.89,37.25-83.94,83.29C23.62,152.94,60.69,190.15,107.02,190.2z M297.05,190.2
		c45.96,0.02,83.48-37.33,83.57-83.17c0.09-45.75-37.58-83.71-83.15-83.79c-46.16-0.08-83.92,37.4-84.01,83.37
		C213.38,152.78,250.77,190.18,297.05,190.2z" fill="#000"/>
	<path d="M487.2,60.72c11.97,0,23.95,0.2,35.91-0.1c4.91-0.12,6.53,1.68,6.18,6.35c-0.29,3.96-0.19,7.96-0.03,11.93
		c0.12,3.19-1.17,4.49-4.37,4.43c-6.32-0.12-12.66,0.29-18.95-0.19c-3.78-0.28-5.59,1.32-5.59,5.19
		c0.02,11.14,0.03,22.29,0.05,33.43c0.01,5.73,0.02,11.46,0.03,17.19c0.01,4.5,1.25,11.13-0.47,15.39
		c-1.03,2.54-3.57,2.71-5.94,2.49c-4.62-0.42-9.33-0.37-13.95-0.01c-4.93,0.39-6.64-1.16-6.57-6.34c0.29-20.55-0.02-41.1,0.22-61.65
		c0.05-4.67-1.34-5.97-5.93-5.64c-6.12,0.45-12.3,0.05-18.45,0.13c-3.35,0.04-4.84-1.3-4.68-4.76c0.19-4.13,0.24-8.3-0.01-12.43
		c-0.26-4.23,1.68-5.51,5.63-5.47C462.59,60.8,474.89,60.72,487.2,60.72z" fill="#000"/>
	<path d="M120.47,83.32c0,2.85,0,5.14,0,7.42c0,20.05-0.12,40.1,0.09,60.15c0.05,4.63-1.49,6.2-6.05,5.94
		c-5.3-0.31-10.64-0.27-15.95-0.01c-4.16,0.2-5.46-1.4-5.43-5.49c0.16-20.55,0.07-41.1,0.07-61.65c0-1.94,0-3.89,0-6.36
		c-8,0-15.43-0.2-22.85,0.07c-4.42,0.16-5.98-1.54-5.72-5.8c0.24-4.13,0.09-8.28,0.07-12.43c-0.02-3.07,1.34-4.48,4.53-4.48
		c25.1,0.05,50.2,0.05,75.31,0c3.42-0.01,4.83,1.58,4.81,4.83c-0.03,4.31-0.12,8.62,0.03,12.92c0.13,3.71-1.61,4.95-5.13,4.89
		C136.62,83.23,129,83.32,120.47,83.32z" fill="#000"/>
	<path d="M315.01,110.39c0-14.24,0-28.48,0-42.72c0-8.22,0-8.23,8.16-8.32c4.33-0.05,8.65,0.01,12.98-0.12
		c3.27-0.09,4.94,1.13,4.94,4.6c-0.04,28.7-0.03,57.39-0.01,86.09c0,3.26-1.32,5.04-4.8,4.68c-0.16-0.02-0.33,0-0.5,0
		c-17.47,0.37-17.46,0.37-27.86-13.81c-9.21-12.55-18.43-25.08-28.42-38.68c-0.17,2.71-0.35,4.39-0.36,6.06
		c-0.02,13.1,0,26.21-0.02,39.31c-0.01,6.85-0.28,7.1-6.9,7.11c-4.83,0.01-9.65-0.1-14.47,0.03c-3.37,0.1-4.81-1.22-4.8-4.66
		c0.06-28.7,0.06-57.39,0-86.09c-0.01-3.22,1.25-4.63,4.44-4.36c0.17,0.01,0.33,0,0.5,0c17.95-0.54,17.94-0.53,28.64,14.07
		c9.08,12.4,18.2,24.77,27.3,37.15C314.21,110.63,314.61,110.51,315.01,110.39z" fill="#000"/>
</g>
</svg>
